<svg xmlns="http://www.w3.org/2000/svg" xmlns:xlink="http://www.w3.org/1999/xlink" width="1024" zoomAndPan="magnify" viewBox="0 0 768 767.999994" height="1024" preserveAspectRatio="xMidYMid meet" version="1.0"><defs><g/><clipPath id="c1d7f54a0a"><path d="M 384 0 C 171.921875 0 0 171.921875 0 384 C 0 596.078125 171.921875 768 384 768 C 596.078125 768 768 596.078125 768 384 C 768 171.921875 596.078125 0 384 0 Z M 384 0 " clip-rule="nonzero"/></clipPath><clipPath id="e1160cfeb0"><path d="M 37.445312 37.445312 L 730.554688 37.445312 L 730.554688 730.554688 L 37.445312 730.554688 Z M 37.445312 37.445312 " clip-rule="nonzero"/></clipPath><clipPath id="7801a9931d"><path d="M 384 37.445312 C 192.601562 37.445312 37.445312 192.601562 37.445312 384 C 37.445312 575.398438 192.601562 730.554688 384 730.554688 C 575.398438 730.554688 730.554688 575.398438 730.554688 384 C 730.554688 192.601562 575.398438 37.445312 384 37.445312 Z M 384 37.445312 " clip-rule="nonzero"/></clipPath><clipPath id="ffc1041090"><path d="M 37.445312 37.445312 L 730.445312 37.445312 L 730.445312 730.445312 L 37.445312 730.445312 Z M 37.445312 37.445312 " clip-rule="nonzero"/></clipPath><clipPath id="dc83f443c0"><path d="M 383.996094 37.445312 C 192.601562 37.445312 37.445312 192.601562 37.445312 383.996094 C 37.445312 575.394531 192.601562 730.550781 383.996094 730.550781 C 575.394531 730.550781 730.550781 575.394531 730.550781 383.996094 C 730.550781 192.601562 575.394531 37.445312 383.996094 37.445312 Z M 383.996094 37.445312 " clip-rule="nonzero"/></clipPath><clipPath id="c72eecd398"><path d="M 262.398438 262.398438 L 505.601562 262.398438 L 505.601562 505.601562 L 262.398438 505.601562 Z M 262.398438 262.398438 " clip-rule="nonzero"/></clipPath><clipPath id="5cd8edf63c"><path d="M 384 262.398438 C 316.84375 262.398438 262.398438 316.84375 262.398438 384 C 262.398438 451.15625 316.84375 505.601562 384 505.601562 C 451.15625 505.601562 505.601562 451.15625 505.601562 384 C 505.601562 316.84375 451.15625 262.398438 384 262.398438 Z M 384 262.398438 " clip-rule="nonzero"/></clipPath><clipPath id="7f31839146"><path d="M 262.398438 262.398438 L 505.398438 262.398438 L 505.398438 505.398438 L 262.398438 505.398438 Z M 262.398438 262.398438 " clip-rule="nonzero"/></clipPath><clipPath id="dab3893ed7"><path d="M 384 262.398438 C 316.84375 262.398438 262.398438 316.84375 262.398438 384 C 262.398438 451.15625 316.84375 505.597656 384 505.597656 C 451.15625 505.597656 505.597656 451.15625 505.597656 384 C 505.597656 316.84375 451.15625 262.398438 384 262.398438 Z M 384 262.398438 " clip-rule="nonzero"/></clipPath><clipPath id="7c274471e0"><path d="M 337.386719 337.386719 L 430.613281 337.386719 L 430.613281 430.613281 L 337.386719 430.613281 Z M 337.386719 337.386719 " clip-rule="nonzero"/></clipPath><clipPath id="d2c6841ea1"><path d="M 384 337.386719 C 358.253906 337.386719 337.386719 358.253906 337.386719 384 C 337.386719 409.746094 358.253906 430.613281 384 430.613281 C 409.746094 430.613281 430.613281 409.746094 430.613281 384 C 430.613281 358.253906 409.746094 337.386719 384 337.386719 Z M 384 337.386719 " clip-rule="nonzero"/></clipPath><clipPath id="57d1f33c92"><path d="M 337.386719 337.386719 L 430.386719 337.386719 L 430.386719 430.386719 L 337.386719 430.386719 Z M 337.386719 337.386719 " clip-rule="nonzero"/></clipPath><clipPath id="df5e8eefc3"><path d="M 383.996094 337.386719 C 358.253906 337.386719 337.386719 358.253906 337.386719 383.996094 C 337.386719 409.738281 358.253906 430.609375 383.996094 430.609375 C 409.738281 430.609375 430.609375 409.738281 430.609375 383.996094 C 430.609375 358.253906 409.738281 337.386719 383.996094 337.386719 Z M 383.996094 337.386719 " clip-rule="nonzero"/></clipPath></defs><g clip-path="url(#c1d7f54a0a)"><rect x="-76.8" width="921.6" fill="#ffffff" y="-76.799999" height="921.599993" fill-opacity="1"/><path stroke-linecap="butt" transform="matrix(0.75, 0, 0, 0.75, 0.000003, 0.00002)" fill="none" stroke-linejoin="miter" d="M 512.000021 -0.0000266667 C 229.229174 -0.0000266667 -0.000004 229.229151 -0.000004 511.999999 C -0.000004 794.770846 229.229174 1024.000024 512.000021 1024.000024 C 794.770869 1024.000024 1024.000047 794.770846 1024.000047 511.999999 C 1024.000047 229.229151 794.770869 -0.0000266667 512.000021 -0.0000266667 Z M 512.000021 -0.0000266667 " stroke="#000000" stroke-width="20" stroke-opacity="1" stroke-miterlimit="4"/></g><g clip-path="url(#e1160cfeb0)"><g clip-path="url(#7801a9931d)"><path fill="#ffffff" d="M 37.445312 37.445312 L 730.554688 37.445312 L 730.554688 730.554688 L 37.445312 730.554688 Z M 37.445312 37.445312 " fill-opacity="1" fill-rule="nonzero"/></g></g><g clip-path="url(#ffc1041090)"><g clip-path="url(#dc83f443c0)"><path stroke-linecap="butt" transform="matrix(0.75, 0, 0, 0.75, 37.444776, 37.444706)" fill="none" stroke-linejoin="miter" d="M 462.068476 0.000809217 C 206.875738 0.000809217 0.000714764 206.875833 0.000714764 462.06857 C 0.000714764 717.266516 206.875738 924.141539 462.068476 924.141539 C 717.266421 924.141539 924.141445 717.266516 924.141445 462.06857 C 924.141445 206.875833 717.266421 0.000809217 462.068476 0.000809217 Z M 462.068476 0.000809217 " stroke="#000000" stroke-width="20" stroke-opacity="1" stroke-miterlimit="4"/></g></g><g clip-path="url(#c72eecd398)"><g clip-path="url(#5cd8edf63c)"><path fill="#e0e1e1" d="M 262.398438 262.398438 L 505.601562 262.398438 L 505.601562 505.601562 L 262.398438 505.601562 Z M 262.398438 262.398438 " fill-opacity="1" fill-rule="nonzero"/></g></g><g clip-path="url(#7f31839146)"><g clip-path="url(#dab3893ed7)"><path stroke-linecap="butt" transform="matrix(0.75, 0, 0, 0.75, 262.399999, 262.399929)" fill="none" stroke-linejoin="miter" d="M 162.133343 -0.00198922 C 72.591672 -0.00198922 -0.00208176 72.591764 -0.00208176 162.133435 C -0.00208176 251.675107 72.591672 324.263652 162.133343 324.263652 C 251.675014 324.263652 324.263559 251.675107 324.263559 162.133435 C 324.263559 72.591764 251.675014 -0.00198922 162.133343 -0.00198922 Z M 162.133343 -0.00198922 " stroke="#000000" stroke-width="20" stroke-opacity="1" stroke-miterlimit="4"/></g></g><g clip-path="url(#7c274471e0)"><g clip-path="url(#d2c6841ea1)"><path fill="#ffffff" d="M 337.386719 337.386719 L 430.613281 337.386719 L 430.613281 430.613281 L 337.386719 430.613281 Z M 337.386719 337.386719 " fill-opacity="1" fill-rule="nonzero"/></g></g><g clip-path="url(#57d1f33c92)"><g clip-path="url(#df5e8eefc3)"><path stroke-linecap="butt" transform="matrix(0.75, 0, 0, 0.75, 337.385055, 337.384926)" fill="none" stroke-linejoin="miter" d="M 62.148055 0.00239072 C 27.825136 0.00239072 0.00221819 27.825309 0.00221819 62.148227 C 0.00221819 96.471145 27.825136 124.299272 62.148055 124.299272 C 96.470973 124.299272 124.299099 96.471145 124.299099 62.148227 C 124.299099 27.825309 96.470973 0.00239072 62.148055 0.00239072 Z M 62.148055 0.00239072 " stroke="#000000" stroke-width="20" stroke-opacity="1" stroke-miterlimit="4"/></g></g><g fill="#000000" fill-opacity="1"><g transform="translate(127.856534, 388.605939)"><g><path d="M 26.984375 -41.046875 C 30.910156 -41.046875 34.40625 -40.296875 37.46875 -38.796875 C 40.53125 -37.304688 42.9375 -35.109375 44.6875 -32.203125 C 46.445312 -29.304688 47.328125 -25.734375 47.328125 -21.484375 C 47.328125 -16.859375 46.367188 -12.867188 44.453125 -9.515625 C 42.535156 -6.160156 39.675781 -3.585938 35.875 -1.796875 C 32.082031 -0.015625 27.359375 0.875 21.703125 0.875 C 18.335938 0.875 15.164062 0.585938 12.1875 0.015625 C 9.21875 -0.546875 6.617188 -1.414062 4.390625 -2.59375 L 4.390625 -14.328125 C 6.617188 -13.148438 9.289062 -12.160156 12.40625 -11.359375 C 15.53125 -10.554688 18.46875 -10.15625 21.21875 -10.15625 C 23.914062 -10.15625 26.1875 -10.515625 28.03125 -11.234375 C 29.882812 -11.953125 31.285156 -13.0625 32.234375 -14.5625 C 33.179688 -16.070312 33.65625 -18 33.65625 -20.34375 C 33.65625 -23.476562 32.597656 -25.878906 30.484375 -27.546875 C 28.378906 -29.222656 25.144531 -30.0625 20.78125 -30.0625 C 19.113281 -30.0625 17.378906 -29.898438 15.578125 -29.578125 C 13.773438 -29.253906 12.273438 -28.929688 11.078125 -28.609375 L 5.671875 -31.515625 L 8.09375 -64.25 L 42.9375 -64.25 L 42.9375 -52.734375 L 20 -52.734375 L 18.8125 -40.125 C 19.800781 -40.332031 20.878906 -40.535156 22.046875 -40.734375 C 23.222656 -40.941406 24.867188 -41.046875 26.984375 -41.046875 Z M 26.984375 -41.046875 "/></g></g></g><g fill="#000000" fill-opacity="1"><g transform="translate(105.989348, 452.355936)"><g><path d="M 45.546875 0 L 33.75 0 L 20.921875 -20.625 L 16.546875 -17.484375 L 16.546875 0 L 6.15625 0 L 6.15625 -48.953125 L 16.546875 -48.953125 L 16.546875 -26.546875 C 17.234375 -27.515625 17.910156 -28.476562 18.578125 -29.4375 C 19.253906 -30.394531 19.9375 -31.351562 20.625 -32.3125 L 33.890625 -48.953125 L 45.40625 -48.953125 L 28.328125 -27.296875 Z M 45.546875 0 "/></g></g></g><g fill="#000000" fill-opacity="1"><g transform="translate(151.529507, 452.355936)"><g><path d="M 24.75 -27.484375 L 44.171875 -27.484375 L 44.171875 -2.109375 C 41.597656 -1.265625 38.925781 -0.585938 36.15625 -0.078125 C 33.394531 0.421875 30.257812 0.671875 26.75 0.671875 C 21.882812 0.671875 17.753906 -0.285156 14.359375 -2.203125 C 10.972656 -4.128906 8.394531 -6.96875 6.625 -10.71875 C 4.863281 -14.46875 3.984375 -19.078125 3.984375 -24.546875 C 3.984375 -29.679688 4.96875 -34.125 6.9375 -37.875 C 8.914062 -41.625 11.804688 -44.523438 15.609375 -46.578125 C 19.421875 -48.628906 24.070312 -49.65625 29.5625 -49.65625 C 32.15625 -49.65625 34.710938 -49.375 37.234375 -48.8125 C 39.753906 -48.257812 42.039062 -47.535156 44.09375 -46.640625 L 40.65625 -38.34375 C 39.15625 -39.101562 37.441406 -39.738281 35.515625 -40.25 C 33.597656 -40.757812 31.59375 -41.015625 29.5 -41.015625 C 26.488281 -41.015625 23.867188 -40.320312 21.640625 -38.9375 C 19.421875 -37.5625 17.703125 -35.628906 16.484375 -33.140625 C 15.273438 -30.648438 14.671875 -27.71875 14.671875 -24.34375 C 14.671875 -21.15625 15.101562 -18.328125 15.96875 -15.859375 C 16.84375 -13.390625 18.21875 -11.457031 20.09375 -10.0625 C 21.96875 -8.664062 24.410156 -7.96875 27.421875 -7.96875 C 28.898438 -7.96875 30.144531 -8.039062 31.15625 -8.1875 C 32.175781 -8.332031 33.128906 -8.484375 34.015625 -8.640625 L 34.015625 -18.859375 L 24.75 -18.859375 Z M 24.75 -27.484375 "/></g></g></g><g fill="#000000" fill-opacity="1"><g transform="translate(588.665691, 388.605939)"><g><path d="M 26.984375 -41.046875 C 30.910156 -41.046875 34.40625 -40.296875 37.46875 -38.796875 C 40.53125 -37.304688 42.9375 -35.109375 44.6875 -32.203125 C 46.445312 -29.304688 47.328125 -25.734375 47.328125 -21.484375 C 47.328125 -16.859375 46.367188 -12.867188 44.453125 -9.515625 C 42.535156 -6.160156 39.675781 -3.585938 35.875 -1.796875 C 32.082031 -0.015625 27.359375 0.875 21.703125 0.875 C 18.335938 0.875 15.164062 0.585938 12.1875 0.015625 C 9.21875 -0.546875 6.617188 -1.414062 4.390625 -2.59375 L 4.390625 -14.328125 C 6.617188 -13.148438 9.289062 -12.160156 12.40625 -11.359375 C 15.53125 -10.554688 18.46875 -10.15625 21.21875 -10.15625 C 23.914062 -10.15625 26.1875 -10.515625 28.03125 -11.234375 C 29.882812 -11.953125 31.285156 -13.0625 32.234375 -14.5625 C 33.179688 -16.070312 33.65625 -18 33.65625 -20.34375 C 33.65625 -23.476562 32.597656 -25.878906 30.484375 -27.546875 C 28.378906 -29.222656 25.144531 -30.0625 20.78125 -30.0625 C 19.113281 -30.0625 17.378906 -29.898438 15.578125 -29.578125 C 13.773438 -29.253906 12.273438 -28.929688 11.078125 -28.609375 L 5.671875 -31.515625 L 8.09375 -64.25 L 42.9375 -64.25 L 42.9375 -52.734375 L 20 -52.734375 L 18.8125 -40.125 C 19.800781 -40.332031 20.878906 -40.535156 22.046875 -40.734375 C 23.222656 -40.941406 24.867188 -41.046875 26.984375 -41.046875 Z M 26.984375 -41.046875 "/></g></g></g><g fill="#000000" fill-opacity="1"><g transform="translate(566.798505, 452.355936)"><g><path d="M 45.546875 0 L 33.75 0 L 20.921875 -20.625 L 16.546875 -17.484375 L 16.546875 0 L 6.15625 0 L 6.15625 -48.953125 L 16.546875 -48.953125 L 16.546875 -26.546875 C 17.234375 -27.515625 17.910156 -28.476562 18.578125 -29.4375 C 19.253906 -30.394531 19.9375 -31.351562 20.625 -32.3125 L 33.890625 -48.953125 L 45.40625 -48.953125 L 28.328125 -27.296875 Z M 45.546875 0 "/></g></g></g><g fill="#000000" fill-opacity="1"><g transform="translate(612.338664, 452.355936)"><g><path d="M 24.75 -27.484375 L 44.171875 -27.484375 L 44.171875 -2.109375 C 41.597656 -1.265625 38.925781 -0.585938 36.15625 -0.078125 C 33.394531 0.421875 30.257812 0.671875 26.75 0.671875 C 21.882812 0.671875 17.753906 -0.285156 14.359375 -2.203125 C 10.972656 -4.128906 8.394531 -6.96875 6.625 -10.71875 C 4.863281 -14.46875 3.984375 -19.078125 3.984375 -24.546875 C 3.984375 -29.679688 4.96875 -34.125 6.9375 -37.875 C 8.914062 -41.625 11.804688 -44.523438 15.609375 -46.578125 C 19.421875 -48.628906 24.070312 -49.65625 29.5625 -49.65625 C 32.15625 -49.65625 34.710938 -49.375 37.234375 -48.8125 C 39.753906 -48.257812 42.039062 -47.535156 44.09375 -46.640625 L 40.65625 -38.34375 C 39.15625 -39.101562 37.441406 -39.738281 35.515625 -40.25 C 33.597656 -40.757812 31.59375 -41.015625 29.5 -41.015625 C 26.488281 -41.015625 23.867188 -40.320312 21.640625 -38.9375 C 19.421875 -37.5625 17.703125 -35.628906 16.484375 -33.140625 C 15.273438 -30.648438 14.671875 -27.71875 14.671875 -24.34375 C 14.671875 -21.15625 15.101562 -18.328125 15.96875 -15.859375 C 16.84375 -13.390625 18.21875 -11.457031 20.09375 -10.0625 C 21.96875 -8.664062 24.410156 -7.96875 27.421875 -7.96875 C 28.898438 -7.96875 30.144531 -8.039062 31.15625 -8.1875 C 32.175781 -8.332031 33.128906 -8.484375 34.015625 -8.640625 L 34.015625 -18.859375 L 24.75 -18.859375 Z M 24.75 -27.484375 "/></g></g></g></svg>